<svg width="183" height="30" viewBox="0 0 183 30" fill="none" xmlns="http://www.w3.org/2000/svg">
<path fill-rule="evenodd" clip-rule="evenodd" d="M119.047 0.112467C118.813 0.0761858 118.578 0.0398871 118.344 0C117.627 0 116.91 0 116.196 0.00389673C115.993 0.037072 115.789 0.0688063 115.585 0.100524L115.585 0.100539C115.119 0.17313 114.653 0.245633 114.19 0.335119C107.869 1.5509 101.178 8.08962 102.683 17.5704C103.22 20.9683 104.818 23.7935 107.335 26.1159C110.725 29.245 114.747 30.4413 119.302 29.8568C123.215 29.3541 126.324 27.3901 128.896 24.4871C129.035 24.3317 129.158 24.1617 129.283 23.9882L129.284 23.9873C129.34 23.9087 129.398 23.8295 129.457 23.7506C128.933 23.3121 128.464 22.9162 127.994 22.5204L127.992 22.5185L127.988 22.5153C122.521 29.5139 113.301 29.2177 108.321 24.2494C103.302 19.2421 103.283 10.2172 108.898 5.23721C114.166 0.565026 123.195 1.08719 127.778 7.53239C127.956 7.37958 128.135 7.22677 128.313 7.07356L128.321 7.06706L128.322 7.0659L128.324 7.06459C128.625 6.80664 128.927 6.54755 129.235 6.28543C129.202 6.23393 129.173 6.18444 129.145 6.13712L129.145 6.13692C129.086 6.03752 129.032 5.94764 128.966 5.86848C126.757 3.12518 124.025 1.16512 120.537 0.377983C120.045 0.266674 119.546 0.189611 119.047 0.11247L119.047 0.112467ZM182.33 29.6305C182.512 29.6362 182.693 29.6419 182.874 29.6463V29.4593C182.863 29.4392 182.853 29.4192 182.842 29.3992C182.832 29.3793 182.821 29.3594 182.81 29.3395C182.759 29.2442 182.708 29.1491 182.667 29.0501C180.715 24.356 178.767 19.6618 176.819 14.9659L176.805 14.9324L175.104 10.8329C174.802 10.1062 174.501 9.37952 174.199 8.65275L174.189 8.62895L174.173 8.58954C173.11 6.02866 172.046 3.46672 170.996 0.900115C170.841 0.522132 170.654 0.366262 170.244 0.409127C169.894 0.448094 169.527 0.444197 169.173 0.409127C168.783 0.370159 168.608 0.522132 168.46 0.880631C164.614 10.1627 160.756 19.4447 156.898 28.7228C156.822 28.9079 156.749 29.0948 156.668 29.3063C156.647 29.3585 156.627 29.4122 156.605 29.4677C156.589 29.5093 156.572 29.5519 156.555 29.5957C156.74 29.5957 156.918 29.5928 157.092 29.59C157.492 29.5836 157.868 29.5775 158.242 29.6074C158.722 29.6463 158.944 29.4866 159.127 29.0345C159.736 27.5263 160.361 26.0237 160.987 24.5208L160.99 24.513L160.99 24.5127C161.413 23.4982 161.835 22.4836 162.252 21.4671C162.373 21.1787 162.505 21.0423 162.852 21.0423C167.431 21.054 172.014 21.054 176.592 21.0423C176.931 21.0423 177.071 21.1592 177.196 21.4593C177.709 22.7087 178.228 23.9553 178.746 25.2014C179.307 26.5477 179.866 27.8933 180.419 29.2411C180.532 29.5216 180.672 29.6113 180.964 29.6074C181.419 29.6018 181.875 29.6161 182.33 29.6305L182.33 29.6305ZM172.999 11.308L173.105 11.5613C174.125 14.0194 175.144 16.473 176.167 18.9381H163.289C165.428 13.7671 167.552 8.63513 169.718 3.40571C170.82 6.05847 171.911 8.68612 172.999 11.308ZM74.5628 24.0874L74.5708 24.1014C75.606 25.9227 76.6447 27.7502 77.6932 29.5957C77.4931 29.5957 77.2973 29.597 77.1048 29.5982C76.5398 29.6019 76.0029 29.6053 75.4681 29.5763C75.3485 29.5688 75.2217 29.3533 75.1324 29.2016L75.1213 29.1827C72.9781 25.4379 70.8349 21.6893 68.7073 17.9367C68.5281 17.625 68.341 17.5159 67.9825 17.5198C65.8898 17.5315 63.7971 17.53 61.706 17.5285C61.0092 17.528 60.3126 17.5276 59.6162 17.5276H59.1135V29.5607H57.021V0.440383C57.0619 0.438434 57.1028 0.436242 57.1437 0.43405C57.2665 0.427475 57.3892 0.420899 57.512 0.420899C58.3811 0.420899 59.2499 0.421143 60.1187 0.421386C62.7244 0.422117 65.329 0.422847 67.9357 0.417002C71.0999 0.413105 73.7146 1.54316 75.5811 4.14618C77.5802 6.93234 77.5763 11.2071 75.5266 13.9504C74.4316 15.4155 72.9197 16.3741 71.1778 16.9547C71.0636 16.9946 70.9458 17.0272 70.8095 17.0649L70.8094 17.0649C70.7458 17.0825 70.6782 17.1012 70.605 17.1223C71.9273 19.4504 73.2422 21.7639 74.5628 24.0874ZM59.1252 15.3999C59.1811 15.4041 59.2305 15.4088 59.2757 15.4131C59.3565 15.4208 59.424 15.4272 59.4915 15.4272C60.3189 15.4272 61.146 15.4279 61.973 15.4285L61.9763 15.4285C64.0458 15.4301 66.1145 15.4317 68.1851 15.4233C68.68 15.4194 69.1827 15.3766 69.6698 15.283C72.0156 14.8349 73.7653 13.5724 74.5485 11.2928C75.3668 8.90798 75.0785 6.6245 73.3444 4.66834C71.9455 3.09016 70.0945 2.54852 68.0565 2.53683C66.0927 2.52592 64.1308 2.52837 62.1682 2.53082C61.3268 2.53188 60.4853 2.53293 59.6435 2.53293H59.1213C59.1252 6.84629 59.1252 11.0897 59.1252 15.3873V15.3999ZM25.7509 29.6023C25.9381 29.601 26.1294 29.5996 26.3263 29.5996C26.2612 29.4385 26.2232 29.3316 26.1885 29.234C26.1837 29.2206 26.1791 29.2074 26.1744 29.1943C22.3789 20.037 18.5835 10.8797 14.7842 1.72623C14.7383 1.61589 14.6966 1.49625 14.6545 1.37554C14.5285 1.0145 14.3992 0.643784 14.1451 0.483167C13.9261 0.346854 13.6142 0.371719 13.2942 0.397239C13.1019 0.412573 12.9066 0.428143 12.7267 0.409129C12.2552 0.362369 12.0565 0.545515 11.8811 0.970259C9.25814 7.31014 6.62434 13.6457 3.991 19.9802C3.0878 22.1528 2.18466 24.3253 1.28203 26.4978C1.02872 27.1052 0.778242 27.7141 0.521238 28.3388C0.351247 28.752 0.178403 29.1722 0 29.6035C0.231778 29.6035 0.454905 29.6012 0.672337 29.599C1.09097 29.5947 1.48849 29.5906 1.88602 29.6035C2.20945 29.619 2.37311 29.5177 2.5017 29.2021C3.00137 27.9842 3.50711 26.7688 4.01278 25.5536C4.57975 24.1911 5.14664 22.8288 5.70482 21.4632C5.8412 21.1281 6.01266 21.0462 6.35168 21.0462C10.9031 21.0579 15.4506 21.0579 20.0019 21.0423C20.3877 21.0423 20.5358 21.1787 20.6722 21.5099C21.7321 24.0896 22.8076 26.6692 23.8909 29.2411C23.9532 29.3891 24.1442 29.5762 24.2844 29.584C24.7631 29.6096 25.2418 29.6061 25.7509 29.6023ZM17.2671 13.2741C18.0501 15.1589 18.8333 17.0444 19.6201 18.9381H6.73745C7.60131 16.8507 8.46201 14.7722 9.32336 12.692C10.599 9.61143 11.8761 6.52732 13.1671 3.40572C14.545 6.7208 15.9058 9.99662 17.2671 13.2741Z" fill="#202020"/>
</svg>